<?xml version="1.0" standalone="no"?>
<!DOCTYPE svg PUBLIC "-//W3C//DTD SVG 20010904//EN"
 "http://www.w3.org/TR/2001/REC-SVG-20010904/DTD/svg10.dtd">
<svg version="1.0" xmlns="http://www.w3.org/2000/svg"
 width="16.000000pt" height="16.000000pt" viewBox="0 0 16.000000 16.000000"
 preserveAspectRatio="xMidYMid meet">
<metadata>
Created by potrace 1.11, written by Peter Selinger 2001-2013
</metadata>
<g transform="translate(0.000000,16.000000) scale(0.012500,-0.012500)"
fill="#000000" stroke="none">
<path d="M0 940 l0 -340 60 0 c53 0 60 2 60 20 0 18 7 20 80 20 73 0 80 2 80
20 0 17 7 20 40 20 l40 0 0 60 0 60 60 0 c53 0 60 -2 60 -20 0 -17 -7 -20 -40
-20 -33 0 -40 -3 -40 -20 0 -13 7 -20 20 -20 13 0 20 -7 20 -20 0 -13 -7 -20
-20 -20 -13 0 -20 -7 -20 -20 0 -17 7 -20 40 -20 l40 0 0 60 c0 53 2 60 20 60
13 0 20 7 20 20 0 13 -7 20 -20 20 -13 0 -20 7 -20 20 0 17 -7 20 -40 20 l-40
0 0 60 c0 53 2 60 20 60 13 0 20 7 20 20 0 13 7 20 20 20 13 0 20 7 20 20 0
13 7 20 20 20 13 0 20 7 20 20 0 19 7 20 100 20 93 0 100 -1 100 -20 0 -18 7
-20 60 -20 53 0 60 -2 60 -20 0 -13 7 -20 20 -20 17 0 20 -7 20 -40 0 -33 -3
-40 -20 -40 -17 0 -20 -7 -20 -40 0 -33 -3 -40 -20 -40 -13 0 -20 -7 -20 -20
0 -13 -7 -20 -20 -20 -13 0 -20 -7 -20 -20 0 -18 -7 -20 -80 -20 l-80 0 0 -60
c0 -53 2 -60 20 -60 13 0 20 -7 20 -20 0 -17 7 -20 40 -20 l40 0 0 40 c0 33 3
40 20 40 13 0 20 -7 20 -20 0 -13 7 -20 20 -20 17 0 20 -7 20 -40 0 -33 -3
-40 -20 -40 -13 0 -20 -7 -20 -20 0 -13 -7 -20 -20 -20 -13 0 -20 -7 -20 -20
0 -13 -7 -20 -20 -20 -18 0 -20 -7 -20 -60 0 -53 -2 -60 -20 -60 -13 0 -20 -7
-20 -20 0 -18 -7 -20 -60 -20 -53 0 -60 2 -60 20 0 17 7 20 40 20 33 0 40 3
40 20 0 17 -7 20 -40 20 -33 0 -40 3 -40 20 0 13 7 20 20 20 17 0 20 7 20 40
l0 40 -40 0 c-33 0 -40 3 -40 20 0 13 -7 20 -20 20 -17 0 -20 -7 -20 -40 l0
-40 40 0 c33 0 40 -3 40 -20 0 -18 -7 -20 -60 -20 -53 0 -60 2 -60 20 0 13 -7
20 -20 20 -13 0 -20 -7 -20 -20 0 -13 7 -20 20 -20 17 0 20 -7 20 -40 0 -33 3
-40 20 -40 13 0 20 -7 20 -20 0 -17 7 -20 40 -20 33 0 40 -3 40 -20 0 -18 -7
-20 -60 -20 -53 0 -60 2 -60 20 0 13 -7 20 -20 20 -13 0 -20 -7 -20 -20 0 -13
-7 -20 -20 -20 -13 0 -20 -7 -20 -20 0 -18 -7 -20 -60 -20 -53 0 -60 -2 -60
-20 0 -18 -7 -20 -80 -20 -73 0 -80 -2 -80 -20 0 -13 -7 -20 -20 -20 -18 0
-20 -7 -20 -80 l0 -80 180 0 180 0 0 40 c0 33 -3 40 -20 40 -17 0 -20 7 -20
40 0 33 3 40 20 40 17 0 20 7 20 40 0 33 3 40 20 40 13 0 20 -7 20 -20 0 -13
7 -20 20 -20 17 0 20 -7 20 -40 0 -33 3 -40 20 -40 13 0 20 -7 20 -20 0 -13 7
-20 20 -20 13 0 20 -7 20 -20 0 -13 7 -20 20 -20 13 0 20 -7 20 -20 0 -20 7
-20 280 -20 273 0 280 0 280 20 0 17 -7 20 -40 20 -33 0 -40 3 -40 20 0 17 -7
20 -40 20 -33 0 -40 3 -40 20 0 17 -7 20 -40 20 l-40 0 0 40 c0 33 -3 40 -20
40 -13 0 -20 7 -20 20 0 13 -7 20 -20 20 -18 0 -20 7 -20 80 l0 80 40 0 c33 0
40 3 40 20 0 13 7 20 20 20 13 0 20 7 20 20 0 13 7 20 20 20 17 0 20 7 20 40
0 33 3 40 20 40 13 0 20 7 20 20 0 13 7 20 20 20 17 0 20 7 20 40 0 33 3 40
20 40 18 0 20 7 20 80 l0 80 60 0 c53 0 60 2 60 20 0 17 7 20 40 20 l40 0 0
200 0 200 -640 0 -640 0 0 -340z m680 -280 c0 -13 -7 -20 -20 -20 -13 0 -20 7
-20 20 0 13 7 20 20 20 13 0 20 -7 20 -20z m280 -80 c0 -13 -7 -20 -20 -20
-17 0 -20 -7 -20 -40 0 -33 -3 -40 -20 -40 -13 0 -20 -7 -20 -20 0 -13 -7 -20
-20 -20 -13 0 -20 7 -20 20 0 13 7 20 20 20 17 0 20 7 20 40 0 33 3 40 20 40
13 0 20 7 20 20 0 13 7 20 20 20 13 0 20 -7 20 -20z m-440 -200 c0 -17 -7 -20
-40 -20 -33 0 -40 3 -40 20 0 17 7 20 40 20 33 0 40 -3 40 -20z"/>
</g>
</svg>
